<svg xmlns="http://www.w3.org/2000/svg" viewBox="0 0 19.2 19.2"><title>a</title><g data-name="Layer 2"><g data-name="Livello 1"><circle cx="9.6" cy="9.6" r="9.3" fill="none" stroke="#25242b" stroke-miterlimit="10" stroke-width=".5"/><path d="M12.8 11.9c0 .8 0 1.6.1 2.3h-.8l-.2-1.2h-.1a3.8 3.8 0 0 1-2.9 1.4A2.4 2.4 0 0 1 6.3 12c0-2.4 1.8-2.5 3.7-2.5h1.8V8.1c0-1.7-.1-2.6-2.3-2.6a5.8 5.8 0 0 0-2.5.6l-.2-.7a6.3 6.3 0 0 1 2.7-.7c2.8 0 3.2 1.3 3.2 3.2zm-.9-.4v-1.3h-1.8c-1.3 0-2.8-.1-2.8 1.6a1.7 1.7 0 0 0 1.8 1.8c1.1 0 2.8-.8 2.8-2.2z"/></g></g></svg>