<svg xmlns="http://www.w3.org/2000/svg" viewBox="0 0 19.2 19.2"><title>b</title><g data-name="Layer 2"><g data-name="Livello 1"><circle cx="9.6" cy="9.6" r="9.3" transform="rotate(-87.8 9.568 9.608)" fill="none" stroke="#25242b" stroke-miterlimit="10" stroke-width=".5"/><path d="M13.1 11.5c0 2.8-1.5 4.4-3.6 4.4a3.1 3.1 0 0 1-2.7-1.3v1.1h-.7c0-.6.1-1.3.1-1.9V3.4H7v5.3a3.2 3.2 0 0 1 2.7-1.4c2.2 0 3.4 1.7 3.4 4.2zM6.9 9.8v2.8a2.4 2.4 0 0 0 2.5 2.6c1.9 0 2.8-1.6 2.8-3.7S11.4 8 9.6 8a3 3 0 0 0-2.7 1.8z"/></g></g></svg>