<svg xmlns="http://www.w3.org/2000/svg" viewBox="0 0 48 48"><title>carrello</title><g data-name="Layer 2"><path fill="#fb7e13" d="M0 0h48v48H0z"/><path d="M5.2 8.6A1.4 1.4 0 0 0 3.8 10a1.5 1.5 0 0 0 1.4 1.5l4.6.2 1.1 4v.3l3.8 13.6v.2h21a1.5 1.5 0 0 0 1.4-1.1L40.9 16a1.5 1.5 0 0 0-1.4-1.9h-26l-1.2-4.2a1.5 1.5 0 0 0-1.3-1l-5.7-.3h-.1zm9.1 8.5h23.3l-2.9 10.6H17.2l-2.9-10.6zm5.3 14.3a4 4 0 1 0 4 4 4 4 0 0 0-4-4zm12.2 0a4 4 0 1 0 4 4 4 4 0 0 0-4-4zm-12.2 2.9a1.1 1.1 0 1 1-1.1 1.1 1.1 1.1 0 0 1 1.1-1.1zm12.2 0a1.1 1.1 0 1 1-1.1 1.1 1.1 1.1 0 0 1 1.1-1.1z" fill="#fff"/></g></svg>