<svg xmlns="http://www.w3.org/2000/svg" viewBox="0 0 271.18 161.43"><defs><style>.cls-1,.cls-2{fill:none;stroke:#FB7E13;stroke-miterlimit:10;stroke-width:2px}.cls-2{fill:#fff}.cls-3{fill:#FB7E13}</style></defs><title>explore</title><g id="Layer_2" data-name="Layer 2"><g id="Desktop"><g id="_360_" data-name="360°"><path class="cls-1" d="M270.83 94C231 79.43 185 71.08 136 71.08c-49.35 0-95.66 8.47-135.65 23.28"/><path class="cls-1" d="M59.57 3.71c-8.2 23-13.16 49.69-13.75 78.21-.6 28.73 3.3 55.77 10.63 79.21M213.44.34c8.2 23 13.16 49.69 13.75 78.21.6 28.73-3.3 55.77-10.63 79.21"/><path class="cls-2" d="M124.59 65s-4.44-1.12-4.44 8.43c0 16.65 6 11.32 5.44 27h22.19A26.69 26.69 0 0 1 150 89.27c2.44-5 4.32-8.41 4.22-17.2v-8a3.22 3.22 0 0 0-3.22-3.21 3.22 3.22 0 0 0-3.22 3.22"/><path class="cls-2" d="M147.9 69.71v-9.24a4 4 0 0 0-4-4 4 4 0 0 0-4 4v-2.11a3.83 3.83 0 0 0-3.83-3.83 3.83 3.83 0 0 0-3.83 3.83v3.11a3.83 3.83 0 0 0-3.83-3.83 3.83 3.83 0 0 0-3.83 3.83v12.6"/><path class="cls-3" d="M167.09 61.84v25l15-13-15-12zm-58 25v-25l-15 13 15 12zm17-39.5h25l-13-15-12 15zm21 62h-25l13 15 12-15z"/></g></g></g></svg>