<svg data-name="Layer 1" xmlns="http://www.w3.org/2000/svg" viewBox="0 0 640 640"><title>indicatori</title><path fill="none" stroke="#25242b" stroke-miterlimit="10" stroke-width=".5" d="M371.7 137.6L481 100.1"/><circle cx="371.8" cy="137.5" r="1.9" transform="rotate(-18.9 371.66 137.498)" fill="#25242b"/><circle cx="489.8" cy="97.1" r="9.3" fill="none" stroke="#25242b" stroke-miterlimit="10" stroke-width=".5"/><path d="M493 99.4c0 .8 0 1.6.1 2.3h-.8l-.2-1.2h-.1a3.8 3.8 0 0 1-2.9 1.4 2.4 2.4 0 0 1-2.6-2.4c0-2.4 1.8-2.5 3.7-2.5h1.8v-1.3c0-1.7-.1-2.6-2.3-2.6a5.8 5.8 0 0 0-2.5.6l-.2-.7a6.3 6.3 0 0 1 2.7-.7c2.8 0 3.2 1.3 3.2 3.2zm-.9-.4v-1.2h-1.8c-1.3 0-2.8-.1-2.8 1.6a1.7 1.7 0 0 0 1.8 1.8c1.2 0 2.8-.8 2.8-2.2z"/><path fill="none" stroke="#25242b" stroke-miterlimit="10" stroke-width=".5" d="M269.8 369.7l-110.7 33.1"/><circle cx="269.7" cy="369.7" r="1.9" transform="rotate(-16.7 269.41 369.442)" fill="#25242b"/><circle cx="150.2" cy="405.5" r="9.3" transform="rotate(-87.8 150.07 405.508)" fill="none" stroke="#25242b" stroke-miterlimit="10" stroke-width=".5"/><path d="M153.7 407.4c0 2.8-1.5 4.4-3.6 4.4a3.1 3.1 0 0 1-2.7-1.3v1.1h-.7c0-.6.1-1.3.1-1.9v-10.4h.8v5.4a3.2 3.2 0 0 1 2.8-1.5c2 0 3.3 1.7 3.3 4.2zm-6.2-1.7v2.8a2.4 2.4 0 0 0 2.5 2.6c1.9 0 2.8-1.6 2.8-3.7s-.9-3.6-2.7-3.6a3 3 0 0 0-2.6 1.9z"/><path fill="none" stroke="#25242b" stroke-miterlimit="10" stroke-width=".5" d="M392.6 548.7l-92.2-5.3"/><circle cx="392.5" cy="548.7" r="1.9" transform="rotate(-86.6 394.11 548.074)" fill="#25242b"/><circle cx="291" cy="542.9" r="9.3" transform="rotate(-67.8 291.352 543.021)" fill="none" stroke="#25242b" stroke-miterlimit="10" stroke-width=".5"/><path d="M291.9 546.9a6.6 6.6 0 0 0 2.4-.5l.2.8a6.9 6.9 0 0 1-2.7.5c-2.6 0-4.3-1.8-4.3-4.7s1.8-4.9 4.5-4.9a6.1 6.1 0 0 1 2.6.5l-.2.8a5.7 5.7 0 0 0-2.4-.5c-2.3 0-3.6 1.7-3.6 4s1.4 4 3.5 4z"/></svg>