<svg xmlns="http://www.w3.org/2000/svg" viewBox="0 0 183.6 82"><title>logo</title><g data-name="Layer 2"><path d="M79.8 81H43.7v-1.4c9 0 2.6-12.7 2.6-12.7l-3.5-8.1H18.2c-1.2 2.6-3.7 21.3 12.1 20.8V81H0v-1.4c3.2-.2 7.7-.2 17.6-23.7L39 1h1.2L70 70.8c4 9.1 7.3 8.6 9.9 8.9zM29.7 28L18.5 57.4h23.7zm79.1 54c-11.1 0-16.2-3.4-18.9-5.6a10 10 0 0 1-3.1-9.5 9.6 9.6 0 0 1 18.6 4.4 8.9 8.9 0 0 1-4 5.7c-1.4.7-.8 3.5 7.3 3.5 12.7 0 17.7-10.4 15.1-19.8-1.6-5.3-8.9-17.9-36.3-14.3L96.2 1H137l-5.2 16.9H94.6l-2.6 13c34.2-5.5 47 10.8 46.6 25.9C138 74.3 124.4 82 108.8 82zm74.8-1h-31.9v-1.4c4.7 0 7.9-2 7.9-8.9V21.5c0-10.4-10.8-2.5-10.8-2.5l-.9-1.4L169.8 0h7.2v70.8c0 7.2 2.7 8.9 6.7 8.9z" fill="#fff"/><circle cx="96.2" cy="69.2" r="9.7" fill="#fb7e13"/></g></svg>