<svg xmlns="http://www.w3.org/2000/svg" viewBox="0 0 332 156.35"><defs><style>.cls-1{font-size:24px;font-family:BaronNeueBold,Baron Neue;font-weight:700}.cls-1,.cls-3{fill:#FB7E13}.cls-2,.cls-4{fill:none;stroke-width:5px;stroke:#FB7E13;stroke-miterlimit:10}.cls-4{fill:#fff;stroke-width:2px}</style></defs><title>Spin</title><g id="Layer_2" data-name="Layer 2"><g id="Desktop"><g id="Spin"><text class="cls-1" transform="translate(127.38 150.56)">Spin it</text><path class="cls-2" d="M272.67 12.59c34.8 6.51 56.83 16.15 56.83 26.91C329.5 59.11 256.3 75 166 75S2.5 59.11 2.5 39.5c0-10.76 22-20.4 56.83-26.91"/><path class="cls-3" d="M57 0v25l15-13L57 0zm218 25V0l-15 13 15 12z"/><path class="cls-4" d="M153.4 63.13S149 62 149 71.57c0 16.65 6 11.32 5.44 27h22.16a26.69 26.69 0 0 1 2.22-11.1c2.44-5 4.32-8.41 4.22-17.2v-8a3.22 3.22 0 0 0-3.23-3.27 3.22 3.22 0 0 0-3.22 3.22"/><path class="cls-4" d="M176.71 67.87v-9.23a4 4 0 0 0-4-4 4 4 0 0 0-4 4v-2.11a3.83 3.83 0 0 0-3.83-3.83 3.83 3.83 0 0 0-3.83 3.83v3.11a3.83 3.83 0 0 0-3.83-3.83 3.83 3.83 0 0 0-3.83 3.83v12.6"/><ellipse class="cls-3" cx="166" cy="35.5" rx="11" ry="4"/></g></g></g></svg>